<svg xmlns="http://www.w3.org/2000/svg" width="1400" height="820" viewBox="0 0 1400 820" fill="none">
  <rect width="1400" height="820" rx="32" fill="#F2F5FF"/>
  <rect x="72" y="110" width="500" height="560" rx="34" fill="#FFFFFF" stroke="#D6DEFB" stroke-width="8"/>
  <rect x="828" y="110" width="500" height="560" rx="34" fill="#FFFFFF" stroke="#D6DEFB" stroke-width="8"/>
  <rect x="520" y="260" width="360" height="210" rx="28" fill="#FDFEFF" stroke="#CDD7FF" stroke-width="8"/>
  <text x="700" y="335" text-anchor="middle" fill="#0B1646" font-family="Segoe UI, Arial, sans-serif" font-size="64" font-weight="700">Hired</text>
  <text x="700" y="410" text-anchor="middle" fill="#0B1646" font-family="Segoe UI, Arial, sans-serif" font-size="72" font-weight="900">in 24h</text>

  <circle cx="420" cy="340" r="102" fill="#F2C75C"/>
  <rect x="340" y="420" width="170" height="180" rx="28" fill="#2740B0"/>
  <circle cx="980" cy="340" r="102" fill="#F2C75C"/>
  <rect x="900" y="420" width="170" height="180" rx="28" fill="#2740B0"/>

  <rect x="1120" y="98" width="220" height="220" rx="110" fill="#FFFFFF" stroke="#D6DEFB" stroke-width="8"/>
  <circle cx="1230" cy="178" r="45" fill="#F4C445"/>
  <rect x="1190" y="232" width="80" height="54" rx="16" fill="#314AB8"/>

  <rect x="1080" y="335" width="260" height="260" rx="130" fill="#FFFFFF" stroke="#D6DEFB" stroke-width="8"/>
  <circle cx="1210" cy="440" r="50" fill="#C9D6FF"/>
  <rect x="1168" y="490" width="84" height="66" rx="18" fill="#314AB8"/>

  <rect x="1050" y="600" width="220" height="170" rx="85" fill="#FFFFFF" stroke="#D6DEFB" stroke-width="8"/>
  <circle cx="1124" cy="675" r="36" fill="#F4C445"/>
  <rect x="1168" y="646" width="72" height="56" rx="14" fill="#314AB8"/>

  <path d="M516 492 C560 525 596 525 632 492" stroke="#E9BF58" stroke-width="20" stroke-linecap="round"/>
  <path d="M884 492 C848 525 812 525 768 492" stroke="#E9BF58" stroke-width="20" stroke-linecap="round"/>
</svg>
