<svg xmlns="http://www.w3.org/2000/svg" width="1400" height="800" viewBox="0 0 1400 800" fill="none">
  <defs>
    <linearGradient id="bg" x1="120" y1="40" x2="1280" y2="760" gradientUnits="userSpaceOnUse">
      <stop stop-color="#EAF0FF"/>
      <stop offset="1" stop-color="#DDE7FF"/>
    </linearGradient>
    <linearGradient id="card" x1="0" y1="0" x2="1" y2="1">
      <stop stop-color="#2039A5"/>
      <stop offset="1" stop-color="#3B59D3"/>
    </linearGradient>
  </defs>
  <rect width="1400" height="800" rx="30" fill="url(#bg)"/>
  <rect x="70" y="90" width="620" height="620" rx="36" fill="#FFFFFF" stroke="#D8E0FB" stroke-width="6"/>
  <rect x="760" y="90" width="570" height="620" rx="36" fill="#FFFFFF" stroke="#D8E0FB" stroke-width="6"/>
  <circle cx="380" cy="360" r="150" fill="#F3C561"/>
  <rect x="300" y="470" width="200" height="160" rx="24" fill="url(#card)"/>
  <circle cx="1030" cy="330" r="138" fill="#9CB2FF"/>
  <rect x="930" y="460" width="200" height="170" rx="24" fill="#2A3E98"/>
  <rect x="560" y="315" width="290" height="170" rx="26" fill="#FFFFFF" stroke="#C8D4FF" stroke-width="6"/>
  <text x="705" y="380" text-anchor="middle" fill="#101A4A" font-family="Segoe UI, Arial, sans-serif" font-size="48" font-weight="700">Hired</text>
  <text x="705" y="435" text-anchor="middle" fill="#101A4A" font-family="Segoe UI, Arial, sans-serif" font-size="64" font-weight="800">in 24 hrs</text>
  <path d="M520 470 C560 500 590 500 625 470" stroke="#F3C561" stroke-width="20" stroke-linecap="round"/>
  <path d="M780 470 C745 500 710 500 680 470" stroke="#F3C561" stroke-width="20" stroke-linecap="round"/>
  <circle cx="1115" cy="200" r="66" fill="#F8B82A" stroke="#253379" stroke-width="5"/>
  <text x="1115" y="211" text-anchor="middle" fill="#253379" font-family="Segoe UI, Arial, sans-serif" font-size="30" font-weight="700">JOB</text>
  <circle cx="890" cy="585" r="16" fill="#F8B82A"/>
  <circle cx="936" cy="585" r="16" fill="#F8B82A"/>
  <circle cx="982" cy="585" r="16" fill="#F8B82A"/>
</svg>
